<svg width="54" height="41" viewBox="0 0 54 41" fill="none" xmlns="http://www.w3.org/2000/svg">
<path d="M45.4098 3.56337C45.3951 3.53456 45.3707 3.51199 45.341 3.49969C41.9096 1.90837 38.2884 0.773632 34.5682 0.123877C34.5344 0.117526 34.4995 0.122108 34.4684 0.136971C34.4374 0.151834 34.4117 0.176222 34.3951 0.206667C33.902 1.11125 33.4544 2.0404 33.054 2.99058C29.0438 2.37528 24.9647 2.37528 20.9545 2.99058C20.5514 2.03799 20.0966 1.1086 19.5922 0.206667C19.5749 0.176884 19.5491 0.153058 19.5182 0.138291C19.4873 0.123524 19.4528 0.118501 19.419 0.123877C15.6984 0.772268 12.077 1.90709 8.64603 3.49978C8.61666 3.51237 8.59188 3.53385 8.5751 3.56128C1.71382 13.918 -0.165744 24.02 0.756306 33.997C0.7589 34.0214 0.766332 34.0451 0.778161 34.0666C0.78999 34.0881 0.805974 34.107 0.825163 34.1221C4.82042 37.1121 9.28917 39.3944 14.0407 40.8716C14.0742 40.8818 14.1099 40.8813 14.1431 40.8703C14.1763 40.8593 14.2054 40.8383 14.2264 40.8101C15.2469 39.4066 16.1512 37.9204 16.93 36.3666C16.9407 36.3453 16.9468 36.3219 16.9479 36.298C16.949 36.2741 16.9451 36.2503 16.9365 36.228C16.9278 36.2058 16.9146 36.1857 16.8977 36.169C16.8807 36.1523 16.8605 36.1394 16.8383 36.1311C15.4123 35.5797 14.0318 34.9149 12.7098 34.143C12.6857 34.1287 12.6656 34.1087 12.651 34.0847C12.6365 34.0607 12.628 34.0334 12.6264 34.0053C12.6247 33.9772 12.63 33.9491 12.6416 33.9235C12.6532 33.8979 12.6709 33.8756 12.6931 33.8586C12.9705 33.6485 13.2481 33.43 13.513 33.2093C13.5365 33.1897 13.565 33.1772 13.5952 33.173C13.6254 33.1689 13.6562 33.1734 13.684 33.186C22.3455 37.1815 31.7227 37.1815 40.2816 33.186C40.3095 33.1726 40.3406 33.1675 40.3712 33.1712C40.4019 33.175 40.4309 33.1875 40.4548 33.2072C40.7198 33.4279 40.9973 33.6485 41.2768 33.8586C41.2991 33.8755 41.3169 33.8976 41.3287 33.9231C41.3406 33.9486 41.346 33.9766 41.3445 34.0047C41.3431 34.0329 41.3348 34.0602 41.3205 34.0843C41.3061 34.1084 41.2861 34.1286 41.2622 34.143C39.9431 34.9214 38.5614 35.5857 37.1317 36.129C37.1095 36.1376 37.0893 36.1508 37.0725 36.1677C37.0557 36.1847 37.0426 36.205 37.0341 36.2275C37.0256 36.2499 37.0219 36.2739 37.0232 36.2978C37.0245 36.3218 37.0308 36.3452 37.0417 36.3666C37.8335 37.9117 38.7364 39.3961 39.7432 40.8077C39.7636 40.8366 39.7925 40.8583 39.8259 40.8698C39.8592 40.8812 39.8952 40.8818 39.9289 40.8713C44.6889 39.3992 49.1655 37.1166 53.1658 34.1221C53.1852 34.1077 53.2015 34.0893 53.2133 34.0681C53.2252 34.0469 53.2325 34.0234 53.2346 33.9991C54.3385 22.4647 51.3865 12.4454 45.4098 3.56337ZM18.2235 27.9221C15.6158 27.9221 13.4671 25.5032 13.4671 22.5326C13.4671 19.562 15.5741 17.143 18.2235 17.143C20.8936 17.143 23.0215 19.5831 22.9799 22.5325C22.9799 25.5032 20.8727 27.9221 18.2235 27.9221ZM35.8094 27.9221C33.2018 27.9221 31.0531 25.5032 31.0531 22.5326C31.0531 19.562 33.1601 17.143 35.8094 17.143C38.4797 17.143 40.6075 19.5831 40.5659 22.5325C40.5659 25.5032 38.4797 27.9221 35.8094 27.9221Z" fill="#090909"/>
</svg>
