<svg width="58" height="45" viewBox="0 0 58 45" fill="none" xmlns="http://www.w3.org/2000/svg">
<path d="M14.7097 36.143C14.6856 36.1287 14.6655 36.1087 14.6509 36.0847M14.7097 36.143C14.8264 36.2112 14.9437 36.2785 15.0613 36.345L14.7972 35.9961L14.797 35.996L14.7968 35.9964L14.7097 36.143ZM14.7097 36.143L14.7944 35.9978L14.7959 35.9954L14.6509 36.0847M14.6509 36.0847C14.6364 36.0607 14.6279 36.0334 14.6263 36.0053M14.6509 36.0847L14.6263 36.0053M14.7979 35.9952L14.7974 35.9953L14.7979 35.9952ZM14.7979 35.9952L14.7977 35.9949M14.7979 35.9952L14.7982 35.9955L15.0706 36.3503C15.186 36.4154 15.3019 36.4798 15.4182 36.5434C15.4727 36.4818 15.5177 36.4124 15.5517 36.3376L14.799 35.9952M14.7977 35.9949L15.5517 36.3376L14.799 35.9952M14.7977 35.9949L14.7978 35.9946L14.7977 35.9949ZM14.799 35.9952L14.7987 35.9952L14.799 35.9952ZM19.8542 37.8309C19.859 37.8422 19.8637 37.8536 19.8682 37.865L19.8542 37.8309ZM19.8542 37.8309C25.8827 39.6284 32.1228 39.6336 38.1103 37.8441C38.1064 37.8537 38.1026 37.8633 38.0989 37.873L19.8542 37.8309ZM40.9275 43.3863C39.893 41.9356 38.9653 40.4103 38.1516 38.8227L38.1506 38.8206C38.0762 38.6747 38.0334 38.5151 38.0246 38.3522C38.0157 38.1894 38.0409 38.0261 38.0989 37.8732L35.517 1.72805C35.6335 1.51421 35.8149 1.34103 36.0368 1.23485C36.2566 1.12975 36.504 1.09621 36.7443 1.1395C40.5456 1.80379 44.2456 2.96298 47.7519 4.58799C47.9625 4.68201 48.1378 4.83719 48.2567 5.03093C54.3412 14.084 57.3561 24.323 56.2302 36.0924C56.215 36.2552 56.166 36.4134 56.0858 36.5566C56.0054 36.7003 55.8952 36.8259 55.7621 36.9247C51.6712 39.9866 47.0929 42.3209 42.2242 43.8267M40.9275 43.3863C40.927 43.3856 40.9266 43.385 40.9261 43.3843L41.7431 42.8077L40.9289 43.3883C40.9285 43.3876 40.928 43.387 40.9275 43.3863ZM40.9275 43.3863C41.0683 43.5849 41.2685 43.7358 41.5013 43.8157L41.5014 43.8157C41.735 43.8958 41.9881 43.8997 42.2242 43.8267M42.2242 43.8267C42.2243 43.8267 42.2243 43.8267 42.2243 43.8267L41.9288 42.8713L42.2242 43.8267ZM14.6263 36.0053C14.6246 35.9772 14.6299 35.9491 14.6415 35.9235L14.6263 36.0053ZM1.76179 36.1025C1.77837 36.2588 1.82591 36.4106 1.902 36.5488L35.5167 1.72859C35.1312 2.43584 34.7726 3.15761 34.4418 3.89232C30.8319 3.40795 27.1744 3.40803 23.5645 3.89258C23.2282 3.15284 22.8614 2.42752 22.4649 1.71856L22.4609 1.71142L22.4568 1.70435C22.3392 1.50188 22.1629 1.33812 21.9494 1.23608C21.7359 1.134 21.4961 1.09898 21.2616 1.13632L21.2544 1.13747L21.2472 1.13872C17.4429 1.8017 13.7402 2.96167 10.2322 4.58935C10.0279 4.68147 9.856 4.83059 9.73595 5.01716C2.74425 15.5745 0.819215 25.9044 1.76046 36.089L1.76037 36.089L1.76179 36.1025ZM23.9799 24.5183L23.9798 24.5183V24.5325C23.9798 27.076 22.2031 28.9221 20.2234 28.9221C18.2799 28.9221 16.467 27.07 16.467 24.5326C16.467 21.9892 18.2436 20.143 20.2234 20.143C22.2304 20.143 24.0152 22.0153 23.9799 24.5183ZM41.5659 24.5183H41.5658V24.5325C41.5658 27.0791 39.8074 28.9221 37.8093 28.9221C35.866 28.9221 34.053 27.07 34.053 24.5326C34.053 21.9892 35.8296 20.143 37.8093 20.143C39.8165 20.143 41.6012 22.0153 41.5659 24.5183Z" fill="white" stroke="url(#paint0_linear_55_142)" stroke-width="2"/>
<defs>
<linearGradient id="paint0_linear_55_142" x1="-1.5" y1="2" x2="61.5" y2="48" gradientUnits="userSpaceOnUse">
<stop stop-color="#0093E9"/>
<stop offset="1" stop-color="#80D0C7"/>
</linearGradient>
</defs>
</svg>
