<svg width="50" height="50" viewBox="0 0 50 50" fill="none" xmlns="http://www.w3.org/2000/svg">
<path d="M38.1544 17.9801L37.9667 18.1303V18.3707V18.372V18.3734V18.3747V18.376V18.3774V18.3787V18.3801V18.3814V18.3828V18.3841V18.3854V18.3868V18.3881V18.3895V18.3908V18.3922V18.3935V18.3949V18.3962V18.3975V18.3989V18.4002V18.4016V18.4029V18.4043V18.4056V18.407V18.4083V18.4097V18.411V18.4123V18.4137V18.415V18.4164V18.4177V18.4191V18.4204V18.4218V18.4231V18.4245V18.4258V18.4272V18.4285V18.4299V18.4312V18.4326V18.4339V18.4353V18.4366V18.438V18.4394V18.4407V18.4421V18.4434V18.4448V18.4461V18.4475V18.4488V18.4502V18.4516V18.4529V18.4543V18.4556V18.457V18.4584V18.4597V18.4611V18.4625V18.4638V18.4652V18.4665V18.4679V18.4693V18.4706V18.472V18.4734V18.4748V18.4761V18.4775V18.4789V18.4802V18.4816V18.483V18.4844V18.4857V18.4871V18.4885V18.4899V18.4913V18.4926V18.494V18.4954V18.4968V18.4982V18.4995V18.5009V18.5023V18.5037V18.5051V18.5065V18.5079V18.5093V18.5107V18.5121V18.5134V18.5148V18.5162V18.5176V18.519V18.5204V18.5218V18.5232V18.5246V18.526V18.5275V18.5289V18.5303V18.5317V18.5331V18.5345V18.5359V18.5373V18.5387V18.5402V18.5416V18.543V18.5444V18.5458V18.5473V18.5487V18.5501V18.5515V18.553V18.5544V18.5558V18.5573V18.5587V18.5601V18.5616V18.563V18.5644V18.5659V18.5673V18.5688V18.5702V18.5716V18.5731V18.5745V18.576V18.5774V18.5789V18.5804V18.5818V18.5833V18.5847V18.5862V18.5877V18.5891V18.5906V18.592V18.5935V18.595V18.5965V18.5979V18.5994V18.6009V18.6024V18.6038V18.6053V18.6068V18.6083V18.6098V18.6113V18.6128V18.6143V18.6158V18.6173V18.6187V18.6202V18.6217V18.6233V18.6248V18.6263V18.6278V18.6293V18.6308V18.6323V18.6338V18.6353V18.6369V18.6384V18.6399V18.6414V18.643V18.6445V18.646V18.6476V18.6491V18.6506V18.6522V18.6537V18.6553V18.6568V18.6584V18.6599V18.6615V18.663V18.6646V18.6661V18.6677V18.6693V18.6708V18.6724V18.674V18.6755V18.6771V18.6787V18.6803V18.6818V18.6834V18.685V18.6866V18.6882V18.6898V18.6914V18.693V18.6946V18.6962V18.6978V18.6994V18.701V18.7026V18.7042V18.7058V18.7075V18.7091V18.7107V18.7123V18.7139V18.7156V18.7172V18.7188V18.7205V18.7221V18.7238V18.7254V18.7271V18.7287V18.7304V18.732V18.7337V18.7353V18.737V18.7387V18.7403V18.742V18.7437V18.7453V18.747V18.7487V18.7504V18.7521V18.7538V18.7555V18.7572V18.7589V18.7606V18.7623V18.764V18.7657V18.7674V18.7691V18.7708V18.7725V18.7743V18.776V18.7777V18.7794V18.7812V18.7829V18.7846V18.7864V18.7881V18.7899V18.7916V18.7934V18.7951V18.7969V18.7987V18.8004V18.8022V18.804V18.8057V18.8075V18.8093V18.8111V18.8129V18.8147V18.8165V18.8183V18.8201V18.8219V18.8237V18.8255V18.8273V18.8291V18.8309V18.8327V18.8346V18.8364V18.8382V18.84V18.8419V18.8437V18.8456V18.8474V18.8493V18.8511V18.853V18.8548V18.8567V18.8586V18.8604V18.8623V18.8642V18.8661V18.8679V18.8698V18.8717V18.8736V18.8755V18.8774V18.8793V18.8812V18.8831V18.885V18.887V18.8889V18.8908V18.8927V18.8947V18.8966V18.8985V18.9005V18.9024V18.9044V18.9063V18.9083V18.9102V18.9122V18.9142V18.9161V18.9181V18.9201V18.9221V18.9241V18.926V18.928V18.93V18.932V18.934V18.936V18.9381V18.9401V18.9421V18.9441V18.9461V18.9482V18.9502V18.9522V18.9543V18.9563V18.9584V18.9604V18.9625V18.9645V18.9666V18.9687V18.9707V18.9728V18.9749V18.977V18.9791V18.9812V18.9833V18.9854V18.9875V18.9896V18.9917V18.9938V18.9959V18.998V19.0002V19.0023V19.0044V19.0066V19.0087V19.0109V19.013V19.0152V19.0173V19.0195V19.0217V19.0239V19.026V19.0282V19.0304V19.0326V19.0348V19.037V19.0392V19.0414V19.0436V19.0458V19.048V19.0503V19.0525V19.0547V19.057V19.0592V19.0614V19.0637V19.0659V19.0682V19.0705V19.0727V19.075V19.0773V19.0796V19.0818V19.0841V19.0864V19.0887V19.091V19.0933V19.0957V19.098V19.1003V19.1026V19.1049V19.1073V19.1096V19.112V19.1143V19.1167V19.119V19.1214V19.1238V19.1261V19.1285V19.1309V19.1333V19.1357V19.1381V19.1404V19.1429V19.1453V19.1477V19.1501V19.1525V19.1549V19.1574V19.1598V19.1623V19.1647V19.1672V19.1696V19.1721V19.1745V19.177V19.1795V19.182V19.1845V19.1869V19.1894V19.1919V19.1945V19.197V19.1995V19.202V19.2045V19.2071V19.2096V19.2121V19.2147V19.2172V19.2198V19.2223V19.2249V19.2275V19.2301V19.2326V19.2352V19.2378V19.2404V19.243V19.2456V19.2482V19.2508V19.2535V19.2561V19.2587V19.2614V19.264V19.2667V19.2693V19.272V19.2746V19.2773V19.28V19.2826V19.2853C37.9667 27.756 31.5035 37.5293 19.7227 37.5293C16.8315 37.5293 14.0797 36.7926 11.5889 35.5544C14.5716 35.4756 17.5123 34.3139 19.7828 32.7243L21.082 31.8147H19.496C17.1171 31.8147 15.1934 30.3736 14.1748 28.4322C14.2573 28.4524 14.3629 28.4733 14.4693 28.4733H14.4849C15.1672 28.4733 15.6947 28.4734 16.4573 28.2182L18.139 27.6554L16.4111 27.2568C13.8932 26.6759 11.9293 24.6954 11.5935 22.1292C12.319 22.4039 13.0675 22.5786 13.9148 22.7489L15.7563 23.1189L14.3425 21.8823C12.5783 20.3393 11.5427 18.636 11.5427 16.544C11.5427 15.6937 11.6769 14.8836 12.022 14.1899C15.2943 17.8919 20.0318 20.4768 25.422 20.6996L25.9427 20.7211V20.2C25.9427 19.9354 25.883 19.6728 25.8335 19.4547C25.8275 19.4282 25.8216 19.4024 25.816 19.3773C25.7605 19.1281 25.7133 18.8859 25.7133 18.6C25.7133 15.22 28.4603 12.4707 31.8427 12.4707C33.5588 12.4707 35.2302 13.1146 36.2588 14.3471L36.4375 14.5612L36.7136 14.5216C37.8172 14.3634 38.8112 14.0017 39.692 13.5761C39.1653 14.3957 38.4033 15.0718 37.5097 15.6664L37.8692 16.5758C38.6656 16.4426 39.4034 16.3077 40.1613 16.0788C39.5291 16.7956 38.8438 17.429 38.1544 17.9801ZM38.3333 0.5H11.6667C5.49986 0.5 0.5 5.49986 0.5 11.6667V38.3333C0.5 44.5001 5.49986 49.5 11.6667 49.5H38.3333C44.5001 49.5 49.5 44.5001 49.5 38.3333V11.6667C49.5 5.49986 44.5001 0.5 38.3333 0.5Z" fill="white" stroke="url(#paint0_linear_55_140)"/>
<defs>
<linearGradient id="paint0_linear_55_140" x1="-8.5" y1="53" x2="83.5" y2="-5.5" gradientUnits="userSpaceOnUse">
<stop stop-color="#0093E9"/>
<stop offset="1" stop-color="#80D0C7"/>
</linearGradient>
</defs>
</svg>
